<?xml version="1.0" standalone="no"?><!DOCTYPE svg PUBLIC "-//W3C//DTD SVG 1.1//EN" "http://www.w3.org/Graphics/SVG/1.1/DTD/svg11.dtd"><svg t="1551509208607" class="icon" style="margin-top: 5;margin-bottom: -5;margin-right: 10" viewBox="0 0 1024 1024" version="1.1" xmlns="http://www.w3.org/2000/svg" p-id="5277" xmlns:xlink="http://www.w3.org/1999/xlink" width="16" height="16"><defs><style type="text/css"></style></defs><path d="M430.3 533.88c-115.23 0-209-93.75-209-209s93.75-209 209-209 209 93.75 209 209-93.77 209-209 209z m0-381c-94.85 0-172 77.17-172 172s77.17 172 172 172 172-77.16 172-172-77.15-171.99-172-171.99z" fill="#515151" p-id="5278"></path><path d="M430.3 437.89a113.1 113.1 0 0 1-113-113 18.48 18.48 0 0 1 37 0 76 76 0 0 0 152.05 0 18.48 18.48 0 1 1 37 0 113.1 113.1 0 0 1-113.05 113z" fill="#515151" p-id="5279"></path><path d="M744.8 908.06a18.48 18.48 0 0 1-18.48-18.48V672.95a80.16 80.16 0 0 0-80.07-80.07h-431.9a80.16 80.16 0 0 0-80.07 80.07v216.63a18.48 18.48 0 0 1-37 0V672.95a117.16 117.16 0 0 1 117-117h431.9a117.16 117.16 0 0 1 117 117v216.63a18.48 18.48 0 0 1-18.38 18.48z" fill="#515151" p-id="5280"></path><path d="M908.19 345.75H708.48a18.48 18.48 0 0 1 0-37h199.71a18.48 18.48 0 1 1 0 37zM908.19 455.75H757.75a18.48 18.48 0 1 1 0-37h150.44a18.48 18.48 0 1 1 0 37z" fill="#515151" p-id="5281"></path></svg>