<?xml version="1.0" standalone="no"?><!DOCTYPE svg PUBLIC "-//W3C//DTD SVG 1.1//EN" "http://www.w3.org/Graphics/SVG/1.1/DTD/svg11.dtd"><svg t="1551509121857" class="icon" style="margin-top: 5;margin-bottom: -5;margin-right: 10" viewBox="0 0 1024 1024" version="1.1" xmlns="http://www.w3.org/2000/svg" p-id="2569" xmlns:xlink="http://www.w3.org/1999/xlink" width="16" height="16"><defs><style type="text/css"></style></defs><path d="M768 480v256a32 32 0 0 1-32 32H288a32 32 0 0 1-32-32v-256a32 32 0 0 1 32-32h448a32 32 0 0 1 32 32z m-64 32H320v192h384v-192z m-384-160h384a32 32 0 0 1 0 64H320a32 32 0 1 1 0-64z m32-96h320a32 32 0 0 1 0 64H352a32 32 0 1 1 0-64z m96 320h128a32 32 0 0 1 0 64h-128a32 32 0 0 1 0-64z" p-id="2570" fill="#515151"></path></svg>